<?xml version="1.0" encoding="utf-8"?>
<!-- Generator: Adobe Illustrator 18.1.0, SVG Export Plug-In . SVG Version: 6.00 Build 0)  -->
<!DOCTYPE svg PUBLIC "-//W3C//DTD SVG 1.1//EN" "http://www.w3.org/Graphics/SVG/1.1/DTD/svg11.dtd">
<svg version="1.1" id="Layer_1" xmlns="http://www.w3.org/2000/svg" xmlns:xlink="http://www.w3.org/1999/xlink" x="0px" y="0px"
	 viewBox="0 0 737.3 63.3" enable-background="new 0 0 737.3 63.3" xml:space="preserve">
<g>
	<path fill="#FFFFFF" d="M47.2,45.4L53,57c0,0-6.6,5.5-19.5,5.5c-16.8,0-32.2-13.7-32.2-30.7c0-17.1,15.3-30.9,32.2-30.9
		C46.3,0.9,53,6.3,53,6.3l-5.8,11.5c0,0-4.8-3.7-11.7-3.7c-13.6,0-19.6,9.5-19.6,17.4c0,8,6,17.5,19.6,17.5
		C42.4,49.1,47.2,45.4,47.2,45.4z"/>
	<path fill="#FFFFFF" d="M81,0.9c16.5,0,29.9,13.4,29.9,30.7S98.1,62.4,81,62.4c-17.6,0-30-13.5-30-30.8S64.7,0.9,81,0.9z M81,49.3
		c10.8,0,15.3-8.9,15.3-17.7c0-8.9-4.8-17.7-15.3-17.7c-10.4,0-15.3,8.9-15.3,17.7C65.7,40.5,70,49.3,81,49.3z"/>
	<path fill="#FFFFFF" d="M137,2c11,0,19.4,6,19.4,17.6c0,8.9-4.9,14.9-12.2,17.2l20.4,24.6h-17.2l-18.1-23.5v23.5h-13.5V2H137z
		 M130.8,28.3c5.1,0,11.2-0.4,11.2-7.8s-6.1-7.8-11.2-7.8h-1.6v15.6H130.8z"/>
	<path fill="#FFFFFF" d="M171.5,2l12.4,19l12.4-19h16.3l-21.9,32.8v26.6h-13.5V34.7L155.2,2H171.5z"/>
	<path fill="none" stroke="#FFFFFF" stroke-width="2" stroke-miterlimit="10" d="M252.3,14.6h-20.1v11.6h19.3v11.7h-19.3v11.8h20.1
		v11.7h-33.4V2.9h33.4V14.6z"/>
	<path fill="none" stroke="#FFFFFF" stroke-width="2" stroke-miterlimit="10" d="M259.1,2.9h15l14.7,38.4l14.7-38.4h15l-24.5,58.4
		h-10.5L259.1,2.9z"/>
	<path fill="none" stroke="#FFFFFF" stroke-width="2" stroke-miterlimit="10" d="M366.9,61.4h-14.3l-4.3-11.7H326l-4.3,11.7h-14.3
		L331,2.9h12.3L366.9,61.4z M337.2,21H337l-6.5,17h13.2L337.2,21z"/>
	<path fill="none" stroke="#FFFFFF" stroke-width="2" stroke-miterlimit="10" d="M386.9,61.4h-13.3V2.9h13.3l23.2,36.3h0.1V2.9h13.3
		v58.4h-13.3l-23.2-36.3h-0.1V61.4z"/>
	<path fill="#FFFFFF" d="M471.9,28l-9.5,33.3h-15L430.4,2h15l10.2,40.8h0.4L466.8,2H477l10.8,40.8h0.4L498.3,2h15l-16.9,59.4h-15
		L471.9,28z"/>
	<path fill="#FFFFFF" d="M535.8,2c11,0,19.4,6,19.4,17.6c0,8.9-4.9,14.9-12.2,17.2l20.5,24.6h-17.2l-18.1-23.5v23.5h-13.5V2H535.8z
		 M529.6,28.3c5.1,0,11.2-0.4,11.2-7.8s-6.1-7.8-11.2-7.8h-1.6v15.6H529.6z"/>
	<path fill="#FFFFFF" d="M578.9,61.4h-13.5V2h13.5V61.4z"/>
	<path fill="#FFFFFF" d="M640.2,41c-3.2,15-15.8,21.5-27.4,21.5c-16,0-28.9-13.8-28.9-30.7c0-17.1,12.2-30.8,28.9-30.8
		c10.4,0,17.7,3.9,22.9,10.2l-8.9,9.7c-3.5-5.5-8-7.6-13.2-7.6c-8.4,0-15.1,8.3-15.1,18.6c0,10.1,6.8,18.3,15.1,18.3
		c6.5,0,12.9-4.2,12.9-11.4h-13.7V28.1h27.4V41z"/>
	<path fill="#FFFFFF" d="M658.6,61.4h-13.5V2h13.5v23.7h19.2V2h13.5v59.4h-13.5V37.5h-19.2V61.4z"/>
	<path fill="#FFFFFF" d="M694.2,2H736v11.9h-14.1v47.5h-13.5V13.8h-14.1V2z"/>
</g>
</svg>
